PathFileType	4	(X/Y/Z)	TRAIL_071_Static_01_markers.trc
DataRate	CameraRate	NumFrames	NumMarkers	Units	OrigDataRate	OrigDataStartFrame	OrigNumFrames
200	200	4	48	mm	200	1	391
Frame#	Time	RSH			LSH			C7			LELB			LWR			RELB			RWR			RASI			LASI			SACR			P1			P2			LTHLP			LTHLD			LTHAP			LTHAD			LLEPI			LPAT			LMEPI			LTIAP			LTIAD			LTILAT			LLMAL			LMMAL			LHEEL			LMFS			LMFL			LP5MT			LP1MT			LTOE			RTHLP			RTHLD			RTHAP			RTHAD			RLEPI			RPAT			RMEPI			RTIAP			RTIAD			RTILAT			RLMAL			RMMAL			RHEEL			RMFS			RMFL			RP5MT			RP1MT			RTOE			
		X1	Y1	Z1	X2	Y2	Z2	X3	Y3	Z3	X4	Y4	Z4	X5	Y5	Z5	X6	Y6	Z6	X7	Y7	Z7	X8	Y8	Z8	X9	Y9	Z9	X10	Y10	Z10	X11	Y11	Z11	X12	Y12	Z12	X13	Y13	Z13	X14	Y14	Z14	X15	Y15	Z15	X16	Y16	Z16	X17	Y17	Z17	X18	Y18	Z18	X19	Y19	Z19	X20	Y20	Z20	X21	Y21	Z21	X22	Y22	Z22	X23	Y23	Z23	X24	Y24	Z24	X25	Y25	Z25	X26	Y26	Z26	X27	Y27	Z27	X28	Y28	Z28	X29	Y29	Z29	X30	Y30	Z30	X31	Y31	Z31	X32	Y32	Z32	X33	Y33	Z33	X34	Y34	Z34	X35	Y35	Z35	X36	Y36	Z36	X37	Y37	Z37	X38	Y38	Z38	X39	Y39	Z39	X40	Y40	Z40	X41	Y41	Z41	X42	Y42	Z42	X43	Y43	Z43	X44	Y44	Z44	X45	Y45	Z45	X46	Y46	Z46	X47	Y47	Z47	X48	Y48	Z48
1	        0.0000000000	      125.6699058213	     1518.7094211578	      -62.8379583359	     -143.3594432674	     1528.1225442886	      -49.3766069412	       -9.3872976504	     1515.0315761566	       -4.0855407715	     -422.7393624387	     1401.8881320953	       -0.2783536911	     -682.3612508379	     1385.9351873398	      -71.0046291351	      410.3927853503	     1398.9514112473	      -45.2209115028	      659.8317566313	     1428.0457496643	     -167.2070026398	      139.2749491133	      999.3940591812	     -170.6638336182	     -127.4918374620	     1012.6234292984	     -193.8903331757	        0.0000000000	     1017.6935195923	        0.0000000000	      -43.9552647076	     1019.7982788086	       -1.5484690666	       40.9548523821	     1019.0001726151	       -0.6546378136	     -194.8903408847	      725.8226275444	     -116.9825792313	     -186.2492916189	      614.9514913559	     -114.8072481155	     -118.8127157293	      708.5984349251	     -218.2341217995	     -122.8864696823	      605.1658391953	     -196.1904168129	     -180.6847211919	      519.1294550896	     -111.3777756691	     -137.2558680378	      497.5097179413	     -168.1926846504	      -71.9714296065	      484.2108190060	     -113.5008931160	     -152.6397672496	      350.4580259323	     -133.8683962822	     -166.3921383224	      246.7319369316	     -121.1186647415	     -218.4412238203	      310.0216090679	      -69.7419643402	     -209.9197265707	      110.4407608509	      -63.2434487343	     -130.6295749746	      106.5551266074	      -88.6573791504	     -170.8485540948	       61.4167749882	       -1.7210841179	     -172.8564557634	       87.4149426818	     -175.5384802818	     -261.0854265295	       42.5018072128	     -155.7563543320	     -262.4847051702	       37.8234572709	     -220.3076481819	     -157.6727536522	       44.6312129498	     -219.1510200500	     -186.5728256307	       51.9725456834	     -258.3330273628	      193.3593991198	      729.0109395981	     -100.5755662918	      183.2198741831	      632.9277753830	      -95.2691435814	      122.9904609718	      718.6402082443	     -206.2882781029	      119.0058979191	      625.4401206970	     -186.7468953133	      175.4621806540	      514.9658918381	      -92.1702384949	      130.6387278237	      494.3590164185	     -151.1122584343	       58.8257293202	      488.0166947842	     -101.7364263535	      152.8546753325	      359.9916696548	     -116.4566278458	      158.9186283745	      251.4134645462	      -99.5110869408	      208.2191499867	      326.4985680580	      -45.9409952164	      195.6739368834	      106.2933132052	      -26.2154936790	      119.7723987498	      118.5353398323	      -58.7354302406	      152.0807686247	       62.2851550579	       27.6808738708	      160.0958052077	       85.6733992696	     -148.4553813934	      243.9992967047	       38.7752279639	     -128.4689307213	      247.2452166476	       36.3040976226	     -185.2326393127	      143.1880685486	       40.4812432826	     -201.2028694153	      176.8487039008	       51.1063188314	     -245.6167340279
2	        0.0050000004	      125.6610843338	     1518.7031030655	      -62.7111792564	     -143.3941778741	     1528.0634164810	      -49.2874979973	       -9.4000753961	     1514.9915218353	       -3.9936900139	     -422.7319118581	     1401.7764329910	       -0.3266334534	     -682.3273953996	     1385.7971429825	      -71.1395144463	      410.2287235655	     1398.9608287811	      -44.7558164597	      659.8157229819	     1428.1291961670	     -167.0522093773	      139.2738911309	      999.4216561317	     -170.6063747406	     -127.3511257968	     1012.5167369843	     -193.5093402863	       -0.0792835126	     1017.6569223404	        0.0233054161	      -44.0183301471	     1019.7616815567	       -1.5240907669	       40.8961380817	     1019.0060138702	       -0.6192922592	     -194.9357149206	      725.7934808731	     -117.0341372490	     -186.2571892343	      614.9800419807	     -114.8900985718	     -118.8183632694	      708.6049914360	     -218.2831764221	     -122.9060870610	      605.1657795906	     -196.2487697601	     -180.7003525100	      519.1275477409	     -111.4429831505	     -137.2794267736	      497.5297749043	     -168.2528257370	      -71.9784629546	      484.2418134212	     -113.6189699173	     -152.5868085228	      350.5298197269	     -133.9401602745	     -166.3708296619	      246.7232346535	     -121.1646795273	     -218.4656617246	      310.0386857986	      -69.7730183601	     -209.9198457800	      110.4612946510	      -63.2464885712	     -130.6121555172	      106.5579578280	      -88.6421203613	     -170.8451268278	       61.4341162145	       -1.7219781876	     -172.8386786781	       87.4169021845	     -175.5273938179	     -261.0691544614	       42.4893237650	     -155.7256579399	     -262.4918875299	       37.8503575921	     -220.3252315521	     -157.6809641920	       44.6177273989	     -219.1696763039	     -186.5709927879	       51.9921705127	     -258.3073377609	      193.3394613661	      729.0200591087	     -100.5661487579	      183.1778082051	      632.8881382942	      -95.2789187431	      122.9404899277	      718.6780571938	     -206.2699794769	      118.9562248983	      625.4623532295	     -186.7563724518	      175.4310074248	      514.9685144424	      -92.2400951385	      130.6258234181	      494.3726062775	     -151.1790156364	       58.8071587481	      488.0065023899	     -101.8165349960	      152.8146359124	      359.9607348442	     -116.5199875832	      158.8962021269	      251.3947784901	      -99.5081663132	      208.2109394469	      326.4952600002	      -46.0402965546	      195.6618073382	      106.2991619110	      -26.2055397034	      119.8203730382	      118.5569390655	      -58.7810277939	      152.0713510909	       62.2765906155	       27.6952981949	      159.9614861407	       85.5109617114	     -148.4776139259	      243.9963760771	       38.7792326510	     -128.4573078156	      247.2465726532	       36.2914986908	     -185.2268576622	      143.2228180565	       40.4780730605	     -201.2396454811	      176.8503579297	       51.1256568134	     -245.6328272820
3	        0.0100000007	      125.6432774462	     1518.7178850174	      -62.5849962234	     -143.4180644355	     1528.0282497406	      -49.2153763771	       -9.4141737572	     1514.9559974670	       -3.8861036301	     -422.7472004495	     1401.6867876053	       -0.3008246422	     -682.3074874483	     1385.6505155563	      -71.2226629257	      410.2556648650	     1399.0250825882	      -44.5044636726	      659.8028483786	     1428.2395839691	     -166.9254302979	      139.2545792260	      999.4717240334	     -170.5239415169	     -127.4998393856	     1012.7190351486	     -193.8499212265	       -0.1165345529	     1017.6550149918	        0.0383853912	      -44.1088360749	     1019.7472572327	       -1.5059113503	       40.8756713368	     1018.9989805222	       -0.5280971527	     -194.9163583122	      725.8413434029	     -117.1252131462	     -186.2693485818	      614.9936914444	     -114.9221658707	     -118.8454535804	      708.6488604546	     -218.3372378349	     -122.9073015056	      605.2016615868	     -196.3298916817	     -180.7077136837	      519.1407203674	     -111.5340590477	     -137.2588184677	      497.5527822971	     -168.3214306831	      -71.9761234723	      484.2376708984	     -113.6891841888	     -152.6047048173	      350.5073189735	     -133.9843273163	     -166.3917955957	      246.7218041420	     -121.1746931076	     -218.4627112947	      310.0367784500	      -69.8173046112	     -209.9105623565	      110.4520037770	      -63.2408261299	     -130.6163874469	      106.5442934632	      -88.6475443840	     -170.8378252588	       61.4227466285	       -1.7490386963	     -172.8510168396	       87.4232053757	     -175.5465269089	     -261.1204740606	       42.4767620862	     -155.7761430740	     -262.4667641721	       37.8561019897	     -220.3218936920	     -157.6935407720	       44.6302890778	     -219.1587686539	     -186.5666118465	       51.9878044724	     -258.3249807358	      193.2896318831	      729.0173172951	     -100.5662083626	      183.1610443987	      632.8969001770	      -95.3585505486	      122.8956374325	      718.7146544456	     -206.2758207321	      118.9291867413	      625.5022287369	     -186.7710351944	      175.4126491942	      514.9495601654	      -92.3078060150	      130.5944266715	      494.3573176861	     -151.2517929077	       58.7734299697	      488.0182743073	     -101.9347906113	      152.7914348044	      359.9413633347	     -116.5892481804	      158.8629874386	      251.3778209686	      -99.5703935623	      208.1742676892	      326.4911770821	      -46.0684299469	      195.6662925877	      106.3206344843	      -26.2342095375	      119.7992282905	      118.5266971588	      -58.7843060493	      152.0653608241	       62.2718557715	       27.6914238930	      160.3708955445	       86.0821753740	     -148.6575007439	      243.9935150542	       38.7814268470	     -128.4742355347	      247.2392263808	       36.3121367991	     -185.2235198021	      143.2082298197	       40.4582060874	     -201.2309432030	      176.8557968535	       51.1194951832	     -245.6612586975
4	        0.0150000006	      125.6384941735	     1518.7238454819	      -62.5449419022	     -143.4393581949	     1528.0108451843	      -49.1291880608	       -9.4327257029	     1514.9662494659	       -3.8003921509	     -422.7924105726	     1401.5696048737	       -0.2792477608	     -682.3009905420	     1385.4970932007	      -71.3063478470	      410.4342105784	     1399.0758657455	      -44.7970032692	      659.8054709830	     1428.3291101456	     -166.7717099190	      139.2181756892	      999.4727969170	     -170.4715490341	     -127.4941471420	     1012.7460956573	     -193.8402056694	       -0.2012655095	     1017.6419019699	        0.0870227814	      -44.1566352747	     1019.7322368622	       -1.4894008636	       40.7706293263	     1018.9502239227	       -0.4951357841	     -194.9761715732	      725.8541584015	     -117.1498894691	     -186.2897631727	      614.9949431419	     -114.9889826775	     -118.8565102420	      708.6666822433	     -218.3603644371	     -122.9314264856	      605.2265167236	     -196.3844895363	     -180.6977746091	      519.1551446915	     -111.5934848785	     -137.2924354873	      497.5483715534	     -168.3999300003	      -71.9843042098	      484.2401742935	     -113.7451529503	     -152.6261177860	      350.4933416843	     -134.0651512146	     -166.3569715820	      246.7014044523	     -121.2279796600	     -217.6242676578	      309.8618984222	      -69.9751973152	     -209.9299934707	      110.4535534978	      -63.2506608963	     -130.6171772085	      106.5776348114	      -88.6652469635	     -170.8496120773	       61.4267885685	       -1.7645955086	     -172.8421506486	       87.4346867204	     -175.5460500717	     -261.0894796453	       42.4699522555	     -155.7639241219	     -262.4683138929	       37.8697104752	     -220.3525304794	     -157.6752272449	       44.6311645210	     -219.1495895386	     -186.5663734279	       52.0093813539	     -258.3266496658	      193.2542565264	      729.0148735046	     -100.5952358246	      183.1338050761	      632.9187154770	      -95.3935980797	      122.8586154975	      718.7309265137	     -206.2519192696	      118.8802885808	      625.5458593369	     -186.7861747742	      175.3880026736	      514.9509310722	      -92.3614501953	      130.5673959650	      494.3630099297	     -151.3179540634	       58.7420816519	      488.0194067955	     -102.0165085793	      152.7869793572	      359.9209785461	     -116.6381835938	      158.8458660044	      251.3421177864	      -99.5901823044	      208.1552240052	      326.5196681023	      -46.1344122887	      195.6640723147	      106.3393577933	      -26.2474417686	      119.7659465470	      118.5386553407	      -58.7797760963	      152.0861628451	       62.2693784535	       27.6589989662	      160.1594033637	       85.9770402312	     -148.8368511200	      244.0047356286	       38.7950353324	     -128.4861564636	      247.2541126408	       36.3111346960	     -185.2203011513	      143.1938949027	       40.4923483729	     -201.2148499489	      176.8595221438	       51.1253736913	     -245.6414103508
